<?xml version="1.0" encoding="UTF-8" standalone="no"?>
<!DOCTYPE svg PUBLIC "-//W3C//DTD SVG 1.1//EN" "http://www.w3.org/Graphics/SVG/1.1/DTD/svg11.dtd">
<svg width="100%" height="100%" viewBox="0 0 383 383" version="1.1" xmlns="http://www.w3.org/2000/svg" xmlns:xlink="http://www.w3.org/1999/xlink" xml:space="preserve" xmlns:serif="http://www.serif.com/" style="fill-rule:evenodd;clip-rule:evenodd;stroke-linejoin:round;stroke-miterlimit:2;">
    <g transform="matrix(1,0,0,1,-7953.85,-13805.5)">
        <g transform="matrix(1,0,0,1,-6.98787,-2.17252)">
            <path d="M8151.97,13807.7C8257.45,13807.7 8343.09,13893.4 8343.09,13998.8C8343.09,14104.3 8257.45,14190 8151.97,14190C8046.48,14190 7960.84,14104.3 7960.84,13998.8C7960.84,13893.4 8046.48,13807.7 8151.97,13807.7ZM8151.97,13833.9C8242.99,13833.9 8316.88,13907.8 8316.88,13998.8C8316.88,14089.9 8242.99,14163.8 8151.97,14163.8C8060.95,14163.8 7987.05,14089.9 7987.05,13998.8C7987.05,13907.8 8060.95,13833.9 8151.97,13833.9Z" style="fill:rgb(13,0,72);"/>
        </g>
        <g transform="matrix(0.994731,-0.747824,0.747824,0.994731,-10424.1,6164.76)">
            <path d="M8125.58,13996.7L8144.98,14073L8164.37,13996.7L8177,13996.7C8177,13996.7 8153.87,14087.7 8146.92,14115C8146.7,14115.9 8145.9,14116.5 8144.98,14116.5C8144.06,14116.5 8143.26,14115.9 8143.03,14115C8136.09,14087.7 8112.96,13996.7 8112.96,13996.7L8125.58,13996.7ZM8143.03,13878.4C8143.26,13877.5 8144.06,13876.8 8144.98,13876.8C8145.9,13876.8 8146.7,13877.5 8146.92,13878.4C8153.87,13905.7 8177,13996.7 8177,13996.7L8112.96,13996.7C8112.96,13996.7 8136.09,13905.7 8143.03,13878.4Z" style="fill:rgb(13,0,72);"/>
        </g>
    </g>
</svg>
