<?xml version="1.0" encoding="UTF-8" standalone="no"?>
<!DOCTYPE svg PUBLIC "-//W3C//DTD SVG 1.1//EN" "http://www.w3.org/Graphics/SVG/1.1/DTD/svg11.dtd">
<svg width="100%" height="100%" viewBox="0 0 757 774" version="1.1" xmlns="http://www.w3.org/2000/svg" xmlns:xlink="http://www.w3.org/1999/xlink" xml:space="preserve" xmlns:serif="http://www.serif.com/" style="fill-rule:evenodd;clip-rule:evenodd;stroke-linecap:round;stroke-linejoin:round;stroke-miterlimit:1.5;">
    <g transform="matrix(1,0,0,1,-5977.55,-12983.9)">
        <g id="Artboard2" transform="matrix(0.557276,0,0,0.767276,3213.38,3015.22)">
            <rect x="4960.15" y="12992.3" width="1358.14" height="1008.76" style="fill:none;"/>
            <g transform="matrix(6.0788,0,0,2.23271,-3908.96,9154.05)">
                <path d="M1525.81,1892.36L1543.98,1912.74L1525.81,1933.48L1507.52,1913.24L1525.81,1892.36Z" style="fill:rgb(13,0,72);stroke:white;stroke-width:0.33px;"/>
            </g>
            <g transform="matrix(6.0788,0,0,2.23271,-3281.53,9262.33)">
                <path d="M1525.81,1892.36L1543.98,1912.74L1525.81,1933.48L1507.52,1913.24L1525.81,1892.36Z" style="fill:rgb(13,0,72);stroke:white;stroke-width:0.33px;"/>
            </g>
            <g transform="matrix(6.0788,0,0,2.23271,-3878.1,9490.31)">
                <path d="M1525.81,1892.36L1543.98,1912.74L1525.81,1933.48L1507.52,1913.24L1525.81,1892.36Z" style="fill:rgb(13,0,72);stroke:white;stroke-width:0.33px;"/>
            </g>
            <g transform="matrix(6.0788,0,0,2.23271,-3990.69,9270.59)">
                <path d="M1525.8,1887.17L1534.95,1897.43L1525.8,1907.87L1516.45,1897.38L1525.8,1887.17Z" style="fill:rgb(13,0,72);stroke:white;stroke-width:0.33px;"/>
            </g>
            <g transform="matrix(6.0788,0,0,2.23271,-3392.05,9551.91)">
                <path d="M1525.8,1887.17L1534.95,1897.43L1525.8,1907.87L1516.45,1897.38L1525.8,1887.17Z" style="fill:rgb(13,0,72);stroke:white;stroke-width:0.33px;"/>
            </g>
            <g transform="matrix(6.0788,0,0,2.23271,-3418.88,9540.85)">
                <path d="M1520.86,1892.35L1525.28,1897.3L1520.86,1902.34L1516.45,1897.38L1520.86,1892.35Z" style="fill:rgb(13,0,72);stroke:white;stroke-width:0.33px;"/>
            </g>
            <g transform="matrix(6.0788,0,0,2.23271,-3878.25,9433.25)">
                <path d="M1520.86,1892.35L1525.28,1897.3L1520.86,1902.34L1516.45,1897.38L1520.86,1892.35Z" style="fill:rgb(13,0,72);stroke:white;stroke-width:0.33px;"/>
            </g>
            <g transform="matrix(6.0788,0,0,2.23271,-3293.34,9037.11)">
                <path d="M1520.86,1892.35L1525.28,1897.3L1520.86,1902.34L1516.45,1897.38L1520.86,1892.35Z" style="fill:rgb(13,0,72);stroke:white;stroke-width:0.33px;"/>
            </g>
            <g transform="matrix(6.0788,0,0,2.23271,-3281.38,9054.4)">
                <path d="M1520.86,1892.35L1525.28,1897.3L1520.86,1902.34L1516.45,1897.38L1520.86,1892.35Z" style="fill:rgb(13,0,72);stroke:white;stroke-width:0.33px;"/>
            </g>
            <g transform="matrix(6.0788,0,0,2.23271,-3794.94,9201.02)">
                <path d="M1520.86,1892.35L1525.28,1897.3L1520.86,1902.34L1516.45,1897.38L1520.86,1892.35Z" style="fill:rgb(13,0,72);stroke:white;stroke-width:0.33px;"/>
            </g>
            <g transform="matrix(6.0788,0,0,2.23271,-3824.58,9708)">
                <path d="M1520.86,1892.35L1525.28,1897.3L1520.86,1902.34L1516.45,1897.38L1520.86,1892.35Z" style="fill:rgb(13,0,72);stroke:white;stroke-width:0.33px;"/>
            </g>
        </g>
    </g>
</svg>
