<?xml version="1.0" encoding="UTF-8" standalone="no"?>
<!DOCTYPE svg PUBLIC "-//W3C//DTD SVG 1.1//EN" "http://www.w3.org/Graphics/SVG/1.1/DTD/svg11.dtd">
<svg width="100%" height="100%" viewBox="0 0 3713 565" version="1.1" xmlns="http://www.w3.org/2000/svg" xmlns:xlink="http://www.w3.org/1999/xlink" xml:space="preserve" xmlns:serif="http://www.serif.com/" style="fill-rule:evenodd;clip-rule:evenodd;stroke-linejoin:round;stroke-miterlimit:2;">
    <g transform="matrix(1,0,0,1,-5502.96,-280.278)">
        <g transform="matrix(1.00176,0,0,1.00176,2572.36,-4582.12)">
            <path d="M2969.92,5096.05L3041.81,4860.92C3042.9,4857.34 3048.63,4853.84 3052.37,4853.84C3077.64,4853.84 3139.85,4853.84 3186.22,4853.84C3197.31,4853.84 3207.75,4859.1 3214.35,4868.02C3220.95,4876.94 3222.93,4888.46 3219.69,4899.07L3095.8,5304.3C3092.58,5314.81 3082.88,5321.99 3071.89,5321.99C3071.89,5321.99 2995.45,5321.99 2995.45,5321.99C2973.25,5321.99 2952.38,5311.47 2939.18,5293.63C2925.97,5275.79 2922.01,5252.75 2928.5,5231.53L2969.92,5096.05L2970.36,5096.63L2969.92,5096.05ZM2972.26,5095.22L2972.3,5095.11L3043.72,4861.5C3044.05,4860.4 3045.01,4859.36 3046.16,4858.44C3048.04,4856.95 3050.49,4855.84 3052.37,4855.84C3077.64,4855.84 3139.85,4855.84 3186.22,4855.84C3196.68,4855.84 3206.52,4860.8 3212.75,4869.21C3218.97,4877.62 3220.84,4888.48 3217.78,4898.49L3093.89,5303.72C3090.93,5313.39 3082,5320 3071.89,5320C3071.89,5320 2995.45,5320 2995.45,5320C2973.89,5320 2953.6,5309.77 2940.78,5292.44C2927.96,5275.11 2924.11,5252.73 2930.41,5232.11C2944.4,5186.36 2960.55,5133.53 2972.26,5095.22L2972.26,5095.22Z" style="fill:white;"/>
        </g>
        <g transform="matrix(1.00176,0,0,1.00176,2572.36,-4582.12)">
            <path d="M3370.36,5094.64C3379.35,5065.2 3406.52,5045.1 3437.3,5045.1L3527.74,5045.1C3538.84,5045.1 3549.28,5050.36 3555.88,5059.28C3562.48,5068.2 3564.46,5079.72 3561.21,5090.33C3541.72,5154.08 3509.5,5259.48 3495.8,5304.3C3492.58,5314.81 3482.88,5321.99 3471.89,5321.99C3432.76,5321.99 3352.08,5321.99 3314.36,5321.99C3311.19,5321.99 3308.21,5320.49 3306.32,5317.94C3304.43,5315.39 3303.87,5312.1 3304.8,5309.07C3318.07,5265.66 3350.55,5159.41 3370.36,5094.64ZM3372.26,5095.22C3381.01,5066.63 3407.4,5047.1 3437.3,5047.1L3527.74,5047.1C3538.21,5047.1 3548.05,5052.06 3554.27,5060.47C3560.5,5068.88 3562.36,5079.74 3559.3,5089.75C3539.82,5153.49 3507.59,5258.9 3493.89,5303.72C3490.93,5313.39 3482,5320 3471.89,5320C3471.89,5320 3314.36,5320 3314.36,5320C3311.82,5320 3309.43,5318.79 3307.93,5316.75C3306.42,5314.71 3305.96,5312.08 3306.7,5309.65C3319.97,5266.25 3352.46,5159.99 3372.26,5095.22Z" style="fill:white;"/>
        </g>
        <g transform="matrix(1.00176,0,0,1.00176,2572.36,-4582.12)">
            <path d="M3504.8,5309.07L3628.83,4903.37C3637.83,4873.94 3664.99,4853.84 3695.77,4853.84L3920,4853.84C3923.17,4853.84 3926.16,4855.34 3928.04,4857.89C3929.93,4860.44 3930.49,4863.73 3929.57,4866.76L3827.17,5201.7C3805.31,5273.17 3739.34,5321.99 3664.6,5321.99C3607.03,5321.99 3545.36,5321.99 3514.36,5321.99C3511.19,5321.99 3508.21,5320.49 3506.32,5317.94C3504.43,5315.39 3503.87,5312.1 3504.8,5309.07ZM3506.7,5309.65L3630.74,4903.96C3639.48,4875.36 3665.87,4855.84 3695.77,4855.84L3920,4855.84C3922.54,4855.84 3924.93,4857.04 3926.44,4859.08C3927.95,4861.12 3928.4,4863.75 3927.66,4866.18L3825.26,5201.11C3803.66,5271.75 3738.46,5320 3664.6,5320C3607.03,5320 3545.36,5320 3514.36,5320C3511.82,5320 3509.43,5318.79 3507.93,5316.75C3506.42,5314.71 3505.96,5312.08 3506.7,5309.65Z" style="fill:white;"/>
        </g>
        <g transform="matrix(1.00176,0,0,1.00176,2572.36,-4582.12)">
            <path d="M3415.57,4942.47C3412.78,4950.48 3403.64,4950.96 3405.18,4946.29L3406.26,4943.01C3406.26,4943.01 3419.69,4899.07 3419.69,4899.07C3422.93,4888.46 3420.95,4876.94 3414.35,4868.02C3407.75,4859.1 3397.31,4853.84 3386.22,4853.84C3358.19,4853.84 3324.01,4853.84 3295.77,4853.84C3264.99,4853.84 3237.83,4873.94 3228.83,4903.37L3075.56,5404.7C3074.63,5407.73 3075.2,5411.02 3077.08,5413.57C3078.97,5416.12 3081.95,5417.62 3085.12,5417.62C3113.99,5417.62 3168.04,5417.62 3209.35,5417.62C3240.13,5417.62 3267.3,5397.52 3276.3,5368.09C3298.6,5295.14 3338.49,5164.66 3360.79,5091.71C3371.08,5058.07 3402.12,5035.1 3437.3,5035.1L3526.3,5035.1C3557.08,5035.1 3584.24,5015 3593.24,4985.57C3601.5,4958.57 3611.49,4925.88 3619.69,4899.07C3622.93,4888.46 3620.95,4876.94 3614.35,4868.02C3607.75,4859.1 3597.31,4853.84 3586.22,4853.84L3540.27,4853.84C3483.05,4853.84 3433.23,4891.73 3415.57,4942.47ZM3417.46,4943.13C3434.85,4893.15 3483.92,4855.84 3540.27,4855.84L3586.22,4855.84C3596.68,4855.84 3606.52,4860.8 3612.75,4869.21C3618.97,4877.62 3620.84,4888.48 3617.78,4898.49C3609.58,4925.29 3599.59,4957.98 3591.33,4984.98C3582.59,5013.58 3556.2,5033.1 3526.3,5033.1L3437.3,5033.1C3401.24,5033.1 3369.42,5056.65 3358.88,5091.13C3336.58,5164.07 3296.69,5294.56 3274.39,5367.51C3265.64,5396.1 3239.25,5415.63 3209.35,5415.63C3168.04,5415.63 3113.99,5415.63 3085.12,5415.63C3082.59,5415.63 3080.2,5414.42 3078.69,5412.38C3077.18,5410.34 3076.73,5407.71 3077.47,5405.28C3077.47,5405.28 3230.74,4903.96 3230.74,4903.96C3239.48,4875.36 3265.87,4855.84 3295.77,4855.84L3386.22,4855.84C3396.68,4855.84 3406.52,4860.8 3412.75,4869.21C3418.97,4877.62 3420.84,4888.48 3417.78,4898.49C3417.78,4898.49 3404.35,4942.4 3404.35,4942.4C3404.35,4942.4 3403.28,4945.66 3403.28,4945.66C3402.87,4946.92 3402.96,4947.98 3403.31,4948.81C3403.7,4949.75 3404.44,4950.47 3405.46,4950.89C3406.48,4951.3 3407.86,4951.41 3409.37,4951.04C3412.28,4950.33 3415.81,4947.85 3417.46,4943.13Z" style="fill:white;"/>
        </g>
        <g transform="matrix(1.00176,0,0,1.00176,3474.27,-4582.12)">
            <path d="M2969.92,5096.05L3041.81,4860.92C3042.9,4857.34 3048.63,4853.84 3052.37,4853.84C3077.64,4853.84 3139.85,4853.84 3186.22,4853.84C3197.31,4853.84 3207.75,4859.1 3214.35,4868.02C3220.95,4876.94 3222.93,4888.46 3219.69,4899.07L3095.8,5304.3C3092.58,5314.81 3082.88,5321.99 3071.89,5321.99C3071.89,5321.99 2995.45,5321.99 2995.45,5321.99C2973.25,5321.99 2952.38,5311.47 2939.18,5293.63C2925.97,5275.79 2922.01,5252.75 2928.5,5231.53L2969.92,5096.05L2970.36,5096.63L2969.92,5096.05ZM2972.21,5095.38C2972.24,5095.3 2972.27,5095.21 2972.3,5095.11L3043.72,4861.5C3044.05,4860.4 3045.01,4859.36 3046.16,4858.44C3048.04,4856.95 3050.49,4855.84 3052.37,4855.84C3077.64,4855.84 3139.85,4855.84 3186.22,4855.84C3196.68,4855.84 3206.52,4860.8 3212.75,4869.21C3218.97,4877.62 3220.84,4888.48 3217.78,4898.49L3093.89,5303.72C3090.93,5313.39 3082,5320 3071.89,5320C3071.89,5320 2995.45,5320 2995.45,5320C2973.89,5320 2953.6,5309.77 2940.78,5292.44C2927.96,5275.11 2924.11,5252.73 2930.41,5232.11C2944.4,5186.36 2960.55,5133.53 2972.26,5095.22C2972.25,5095.27 2972.23,5095.33 2972.21,5095.38Z" style="fill:white;"/>
        </g>
        <g transform="matrix(1.00176,0,0,1.00176,3474.27,-4582.12)">
            <path d="M3370.36,5094.64C3379.35,5065.2 3406.52,5045.1 3437.3,5045.1L3527.74,5045.1C3538.84,5045.1 3549.28,5050.36 3555.88,5059.28C3562.48,5068.2 3564.46,5079.72 3561.21,5090.33C3541.72,5154.08 3509.5,5259.48 3495.8,5304.3C3492.58,5314.81 3482.88,5321.99 3471.89,5321.99C3432.76,5321.99 3352.08,5321.99 3314.36,5321.99C3311.19,5321.99 3308.21,5320.49 3306.32,5317.94C3304.43,5315.39 3303.87,5312.1 3304.8,5309.07C3318.07,5265.66 3350.55,5159.41 3370.36,5094.64ZM3372.26,5095.22C3381.01,5066.63 3407.4,5047.1 3437.3,5047.1L3527.74,5047.1C3538.21,5047.1 3548.05,5052.06 3554.27,5060.47C3560.5,5068.88 3562.36,5079.74 3559.3,5089.75C3539.82,5153.49 3507.59,5258.9 3493.89,5303.72C3490.93,5313.39 3482,5320 3471.89,5320C3432.76,5320 3352.08,5320 3314.36,5320C3311.82,5320 3309.43,5318.79 3307.93,5316.75C3306.42,5314.71 3305.96,5312.08 3306.7,5309.65C3319.97,5266.25 3352.46,5159.99 3372.26,5095.22Z" style="fill:white;"/>
        </g>
        <g transform="matrix(1.00176,0,0,1.00176,3474.27,-4582.12)">
            <path d="M3504.8,5309.07L3628.83,4903.37C3637.83,4873.94 3664.99,4853.84 3695.77,4853.84L3920,4853.84C3923.17,4853.84 3926.16,4855.34 3928.04,4857.89C3929.93,4860.44 3930.49,4863.73 3929.57,4866.76L3827.17,5201.7C3805.31,5273.17 3739.34,5321.99 3664.6,5321.99C3607.03,5321.99 3545.36,5321.99 3514.36,5321.99C3511.19,5321.99 3508.21,5320.49 3506.32,5317.94C3504.43,5315.39 3503.87,5312.1 3504.8,5309.07ZM3506.7,5309.65L3630.74,4903.96C3639.48,4875.36 3665.87,4855.84 3695.77,4855.84L3920,4855.84C3922.54,4855.84 3924.93,4857.04 3926.44,4859.08C3927.95,4861.12 3928.4,4863.75 3927.66,4866.18L3825.26,5201.11C3803.66,5271.75 3738.46,5320 3664.6,5320C3607.03,5320 3545.36,5320 3514.36,5320C3511.82,5320 3509.43,5318.79 3507.93,5316.75C3506.42,5314.71 3505.96,5312.08 3506.7,5309.65Z" style="fill:white;"/>
        </g>
        <g transform="matrix(1.00176,0,0,1.00176,3474.27,-4582.12)">
            <path d="M3415.57,4942.47C3412.78,4950.48 3403.64,4950.96 3405.18,4946.29L3406.26,4943.01C3406.26,4943.01 3419.69,4899.07 3419.69,4899.07C3422.93,4888.46 3420.95,4876.94 3414.35,4868.02C3407.75,4859.1 3397.31,4853.84 3386.22,4853.84C3358.19,4853.84 3324.01,4853.84 3295.77,4853.84C3264.99,4853.84 3237.83,4873.94 3228.83,4903.37L3075.56,5404.7C3074.63,5407.73 3075.2,5411.02 3077.08,5413.57C3078.97,5416.12 3081.95,5417.62 3085.12,5417.62C3113.99,5417.62 3168.04,5417.62 3209.35,5417.62C3240.13,5417.62 3267.3,5397.52 3276.3,5368.09C3298.6,5295.14 3338.49,5164.66 3360.79,5091.71C3371.08,5058.07 3402.12,5035.1 3437.3,5035.1L3526.3,5035.1C3557.08,5035.1 3584.24,5015 3593.24,4985.57C3601.5,4958.57 3611.49,4925.88 3619.69,4899.07C3622.93,4888.46 3620.95,4876.94 3614.35,4868.02C3607.75,4859.1 3597.31,4853.84 3586.22,4853.84L3540.27,4853.84C3483.05,4853.84 3433.23,4891.73 3415.57,4942.47ZM3417.46,4943.13C3434.85,4893.15 3483.92,4855.84 3540.27,4855.84L3586.22,4855.84C3596.68,4855.84 3606.52,4860.8 3612.75,4869.21C3618.97,4877.62 3620.84,4888.48 3617.78,4898.49C3609.58,4925.29 3599.59,4957.98 3591.33,4984.98C3582.59,5013.58 3556.2,5033.1 3526.3,5033.1L3437.3,5033.1C3401.24,5033.1 3369.42,5056.65 3358.88,5091.13C3336.58,5164.07 3296.69,5294.56 3274.39,5367.51C3265.64,5396.1 3239.25,5415.63 3209.35,5415.63C3168.04,5415.63 3113.99,5415.63 3085.12,5415.63C3082.59,5415.63 3080.2,5414.42 3078.69,5412.38C3077.18,5410.34 3076.73,5407.71 3077.47,5405.28C3077.47,5405.28 3230.71,4904.04 3230.74,4903.96C3239.48,4875.36 3265.87,4855.84 3295.77,4855.84L3386.22,4855.84C3396.68,4855.84 3406.52,4860.8 3412.75,4869.21C3418.97,4877.62 3420.84,4888.48 3417.78,4898.49C3417.78,4898.49 3404.35,4942.4 3404.35,4942.4C3404.35,4942.4 3403.28,4945.66 3403.28,4945.66C3402.87,4946.92 3402.96,4947.98 3403.31,4948.81C3403.7,4949.75 3404.44,4950.47 3405.46,4950.89C3406.48,4951.3 3407.86,4951.41 3409.37,4951.04C3412.28,4950.33 3415.81,4947.85 3417.46,4943.13Z" style="fill:white;"/>
        </g>
        <g transform="matrix(1.00176,0,0,1.00176,4376.17,-4582.12)">
            <path d="M2969.92,5096.05L3041.81,4860.92C3042.9,4857.34 3048.63,4853.84 3052.37,4853.84C3077.64,4853.84 3139.85,4853.84 3186.22,4853.84C3197.31,4853.84 3207.75,4859.1 3214.35,4868.02C3220.95,4876.94 3222.93,4888.46 3219.69,4899.07L3095.8,5304.3C3092.58,5314.81 3082.88,5321.99 3071.89,5321.99C3071.89,5321.99 2995.45,5321.99 2995.45,5321.99C2973.25,5321.99 2952.38,5311.47 2939.18,5293.63C2925.97,5275.79 2922.01,5252.75 2928.5,5231.53L2969.92,5096.05L2970.36,5096.63L2969.92,5096.05ZM2972.26,5095.22L2972.3,5095.11L3043.72,4861.5C3044.05,4860.4 3045.01,4859.36 3046.16,4858.44C3048.04,4856.95 3050.49,4855.84 3052.37,4855.84C3077.64,4855.84 3139.85,4855.84 3186.22,4855.84C3196.68,4855.84 3206.52,4860.8 3212.75,4869.21C3218.97,4877.62 3220.84,4888.48 3217.78,4898.49L3093.89,5303.72C3090.93,5313.39 3082,5320 3071.89,5320C3071.89,5320 2995.45,5320 2995.45,5320C2973.89,5320 2953.6,5309.77 2940.78,5292.44C2927.96,5275.11 2924.11,5252.73 2930.41,5232.11C2944.4,5186.36 2960.55,5133.53 2972.26,5095.22L2972.26,5095.22Z" style="fill:white;"/>
        </g>
        <g transform="matrix(1.00176,0,0,1.00176,4376.17,-4582.12)">
            <path d="M3370.36,5094.64C3379.35,5065.2 3406.52,5045.1 3437.3,5045.1L3527.74,5045.1C3538.84,5045.1 3549.28,5050.36 3555.88,5059.28C3562.48,5068.2 3564.46,5079.72 3561.21,5090.33C3541.72,5154.08 3509.5,5259.48 3495.8,5304.3C3492.58,5314.81 3482.88,5321.99 3471.89,5321.99C3432.76,5321.99 3352.08,5321.99 3314.36,5321.99C3311.19,5321.99 3308.21,5320.49 3306.32,5317.94C3304.43,5315.39 3303.87,5312.1 3304.8,5309.07C3318.07,5265.66 3350.55,5159.41 3370.36,5094.64ZM3372.26,5095.22C3381.01,5066.63 3407.4,5047.1 3437.3,5047.1L3527.74,5047.1C3538.21,5047.1 3548.05,5052.06 3554.27,5060.47C3560.5,5068.88 3562.36,5079.74 3559.3,5089.75C3539.82,5153.49 3507.59,5258.9 3493.89,5303.72C3490.93,5313.39 3482,5320 3471.89,5320C3432.76,5320 3352.08,5320 3314.36,5320C3311.82,5320 3309.43,5318.79 3307.93,5316.75C3306.42,5314.71 3305.96,5312.08 3306.7,5309.65C3319.97,5266.25 3352.46,5159.99 3372.26,5095.22Z" style="fill:white;"/>
        </g>
        <g transform="matrix(1.00176,0,0,1.00176,4376.17,-4582.12)">
            <path d="M3504.8,5309.07L3628.83,4903.37C3637.83,4873.94 3664.99,4853.84 3695.77,4853.84L3920,4853.84C3923.17,4853.84 3926.16,4855.34 3928.04,4857.89C3929.93,4860.44 3930.49,4863.73 3929.57,4866.76L3827.17,5201.7C3805.31,5273.17 3739.34,5321.99 3664.6,5321.99C3607.03,5321.99 3545.36,5321.99 3514.36,5321.99C3511.19,5321.99 3508.21,5320.49 3506.32,5317.94C3504.43,5315.39 3503.87,5312.1 3504.8,5309.07ZM3506.7,5309.65L3630.74,4903.96C3639.48,4875.36 3665.87,4855.84 3695.77,4855.84L3920,4855.84C3922.54,4855.84 3924.93,4857.04 3926.44,4859.08C3927.95,4861.12 3928.4,4863.75 3927.66,4866.18L3825.26,5201.11C3803.66,5271.75 3738.46,5320 3664.6,5320C3607.03,5320 3545.36,5320 3514.36,5320C3511.82,5320 3509.43,5318.79 3507.93,5316.75C3506.42,5314.71 3505.96,5312.08 3506.7,5309.65Z" style="fill:white;"/>
        </g>
        <g transform="matrix(1.00176,0,0,1.00176,4376.17,-4582.12)">
            <path d="M3415.57,4942.47C3412.78,4950.48 3403.64,4950.96 3405.18,4946.29L3406.26,4943.01C3406.26,4943.01 3419.69,4899.07 3419.69,4899.07C3422.93,4888.46 3420.95,4876.94 3414.35,4868.02C3407.75,4859.1 3397.31,4853.84 3386.22,4853.84C3358.19,4853.84 3324.01,4853.84 3295.77,4853.84C3264.99,4853.84 3237.83,4873.94 3228.83,4903.37L3075.56,5404.7C3074.63,5407.73 3075.2,5411.02 3077.08,5413.57C3078.97,5416.12 3081.95,5417.62 3085.12,5417.62C3113.99,5417.62 3168.04,5417.62 3209.35,5417.62C3240.13,5417.62 3267.3,5397.52 3276.3,5368.09C3298.6,5295.14 3338.49,5164.66 3360.79,5091.71C3371.08,5058.07 3402.12,5035.1 3437.3,5035.1L3526.3,5035.1C3557.08,5035.1 3584.24,5015 3593.24,4985.57C3601.5,4958.57 3611.49,4925.88 3619.69,4899.07C3622.93,4888.46 3620.95,4876.94 3614.35,4868.02C3607.75,4859.1 3597.31,4853.84 3586.22,4853.84L3540.27,4853.84C3483.05,4853.84 3433.23,4891.73 3415.57,4942.47ZM3417.46,4943.13C3434.85,4893.15 3483.92,4855.84 3540.27,4855.84L3586.22,4855.84C3596.68,4855.84 3606.52,4860.8 3612.75,4869.21C3618.97,4877.62 3620.84,4888.48 3617.78,4898.49C3609.58,4925.29 3599.59,4957.98 3591.33,4984.98C3582.59,5013.58 3556.2,5033.1 3526.3,5033.1L3437.3,5033.1C3401.24,5033.1 3369.42,5056.65 3358.88,5091.13C3336.58,5164.07 3296.69,5294.56 3274.39,5367.51C3265.64,5396.1 3239.25,5415.63 3209.35,5415.63C3168.04,5415.63 3113.99,5415.63 3085.12,5415.63C3082.59,5415.63 3080.2,5414.42 3078.69,5412.38C3077.18,5410.34 3076.73,5407.71 3077.47,5405.28C3077.47,5405.28 3230.71,4904.04 3230.74,4903.96C3239.48,4875.36 3265.87,4855.84 3295.77,4855.84L3386.22,4855.84C3396.68,4855.84 3406.52,4860.8 3412.75,4869.21C3418.97,4877.62 3420.84,4888.48 3417.78,4898.49C3417.78,4898.49 3404.35,4942.4 3404.35,4942.4C3404.35,4942.4 3403.28,4945.66 3403.28,4945.66C3402.87,4946.92 3402.96,4947.98 3403.31,4948.81C3403.7,4949.75 3404.44,4950.47 3405.46,4950.89C3406.48,4951.3 3407.86,4951.41 3409.37,4951.04C3412.28,4950.33 3415.81,4947.85 3417.46,4943.13Z" style="fill:white;"/>
        </g>
        <g transform="matrix(1.00176,0,0,1.00176,5278.13,-4582.12)">
            <path d="M2969.92,5096.05L3041.81,4860.92C3042.9,4857.34 3048.63,4853.84 3052.37,4853.84C3077.64,4853.84 3139.85,4853.84 3186.22,4853.84C3197.31,4853.84 3207.75,4859.1 3214.35,4868.02C3220.95,4876.94 3222.93,4888.46 3219.69,4899.07L3095.8,5304.3C3092.58,5314.81 3082.88,5321.99 3071.89,5321.99C3071.89,5321.99 2995.45,5321.99 2995.45,5321.99C2973.25,5321.99 2952.38,5311.47 2939.18,5293.63C2925.97,5275.79 2922.01,5252.75 2928.5,5231.53L2969.77,5096.54C2969.96,5096.6 2970.16,5096.63 2970.36,5096.63L2969.92,5096.05ZM2972.21,5095.38C2972.24,5095.3 2972.27,5095.21 2972.3,5095.11L3043.72,4861.5C3044.05,4860.4 3045.01,4859.36 3046.16,4858.44C3048.04,4856.95 3050.49,4855.84 3052.37,4855.84C3077.64,4855.84 3139.85,4855.84 3186.22,4855.84C3196.68,4855.84 3206.52,4860.8 3212.75,4869.21C3218.97,4877.62 3220.84,4888.48 3217.78,4898.49L3093.89,5303.72C3090.93,5313.39 3082,5320 3071.89,5320C3071.89,5320 2995.45,5320 2995.45,5320C2973.89,5320 2953.6,5309.77 2940.78,5292.44C2927.96,5275.11 2924.11,5252.73 2930.41,5232.11C2944.4,5186.36 2960.55,5133.53 2972.26,5095.22C2972.25,5095.27 2972.23,5095.33 2972.21,5095.38Z" style="fill:white;"/>
        </g>
        <g transform="matrix(1.00176,0,0,1.00176,5278.13,-4582.12)">
            <path d="M3370.36,5094.64C3379.35,5065.2 3406.52,5045.1 3437.3,5045.1L3527.74,5045.1C3538.84,5045.1 3549.28,5050.36 3555.88,5059.28C3562.48,5068.2 3564.46,5079.72 3561.21,5090.33C3541.72,5154.08 3509.5,5259.48 3495.8,5304.3C3492.58,5314.81 3482.88,5321.99 3471.89,5321.99C3432.76,5321.99 3352.08,5321.99 3314.36,5321.99C3311.19,5321.99 3308.21,5320.49 3306.32,5317.94C3304.43,5315.39 3303.87,5312.1 3304.8,5309.07C3318.07,5265.66 3350.55,5159.41 3370.36,5094.64ZM3372.26,5095.22C3381.01,5066.63 3407.4,5047.1 3437.3,5047.1L3527.74,5047.1C3538.21,5047.1 3548.05,5052.06 3554.27,5060.47C3560.5,5068.88 3562.36,5079.74 3559.3,5089.75C3539.82,5153.49 3507.59,5258.9 3493.89,5303.72C3490.93,5313.39 3482,5320 3471.89,5320C3432.76,5320 3352.08,5320 3314.36,5320C3311.82,5320 3309.43,5318.79 3307.93,5316.75C3306.42,5314.71 3305.96,5312.08 3306.7,5309.65C3319.97,5266.25 3352.46,5159.99 3372.26,5095.22Z" style="fill:white;"/>
        </g>
        <g transform="matrix(1.00176,0,0,1.00176,5278.13,-4582.12)">
            <path d="M3504.8,5309.07L3628.83,4903.37C3637.83,4873.94 3664.99,4853.84 3695.77,4853.84L3920,4853.84C3923.17,4853.84 3926.16,4855.34 3928.04,4857.89C3929.93,4860.44 3930.49,4863.73 3929.57,4866.76L3827.17,5201.7C3805.31,5273.17 3739.34,5321.99 3664.6,5321.99C3607.03,5321.99 3545.36,5321.99 3514.36,5321.99C3511.19,5321.99 3508.21,5320.49 3506.32,5317.94C3504.43,5315.39 3503.87,5312.1 3504.8,5309.07ZM3506.7,5309.65L3630.74,4903.96C3639.48,4875.36 3665.87,4855.84 3695.77,4855.84L3920,4855.84C3922.54,4855.84 3924.93,4857.04 3926.44,4859.08C3927.95,4861.12 3928.4,4863.75 3927.66,4866.18L3825.26,5201.11C3803.66,5271.75 3738.46,5320 3664.6,5320C3607.03,5320 3545.36,5320 3514.36,5320C3511.82,5320 3509.43,5318.79 3507.93,5316.75C3506.42,5314.71 3505.96,5312.08 3506.7,5309.65Z" style="fill:white;"/>
        </g>
        <g transform="matrix(1.00176,0,0,1.00176,5278.13,-4582.12)">
            <path d="M3415.57,4942.47C3412.78,4950.48 3403.64,4950.96 3405.18,4946.29L3406.26,4943.01C3406.26,4943.01 3419.69,4899.07 3419.69,4899.07C3422.93,4888.46 3420.95,4876.94 3414.35,4868.02C3407.75,4859.1 3397.31,4853.84 3386.22,4853.84C3358.19,4853.84 3324.01,4853.84 3295.77,4853.84C3264.99,4853.84 3237.83,4873.94 3228.83,4903.37L3075.56,5404.7C3074.63,5407.73 3075.2,5411.02 3077.08,5413.57C3078.97,5416.12 3081.95,5417.62 3085.12,5417.62C3113.99,5417.62 3168.04,5417.62 3209.35,5417.62C3240.13,5417.62 3267.3,5397.52 3276.3,5368.09C3298.6,5295.14 3338.49,5164.66 3360.79,5091.71C3371.08,5058.07 3402.12,5035.1 3437.3,5035.1L3526.3,5035.1C3557.08,5035.1 3584.24,5015 3593.24,4985.57C3601.5,4958.57 3611.49,4925.88 3619.69,4899.07C3622.93,4888.46 3620.95,4876.94 3614.35,4868.02C3607.75,4859.1 3597.31,4853.84 3586.22,4853.84L3540.27,4853.84C3483.05,4853.84 3433.23,4891.73 3415.57,4942.47ZM3417.46,4943.13C3434.85,4893.15 3483.92,4855.84 3540.27,4855.84L3586.22,4855.84C3596.68,4855.84 3606.52,4860.8 3612.75,4869.21C3618.97,4877.62 3620.84,4888.48 3617.78,4898.49C3609.58,4925.29 3599.59,4957.98 3591.33,4984.98C3582.59,5013.58 3556.2,5033.1 3526.3,5033.1L3437.3,5033.1C3401.24,5033.1 3369.42,5056.65 3358.88,5091.13C3336.58,5164.07 3296.69,5294.56 3274.39,5367.51C3265.64,5396.1 3239.25,5415.63 3209.35,5415.63C3168.04,5415.63 3113.99,5415.63 3085.12,5415.63C3082.59,5415.63 3080.2,5414.42 3078.69,5412.38C3077.18,5410.34 3076.73,5407.71 3077.47,5405.28C3077.47,5405.28 3230.74,4903.96 3230.74,4903.96C3239.48,4875.36 3265.87,4855.84 3295.77,4855.84L3386.22,4855.84C3396.68,4855.84 3406.52,4860.8 3412.75,4869.21C3418.97,4877.62 3420.84,4888.48 3417.78,4898.49C3417.78,4898.49 3404.35,4942.4 3404.35,4942.4C3404.35,4942.4 3403.28,4945.67 3403.28,4945.67C3402.87,4946.92 3402.96,4947.98 3403.31,4948.81C3403.7,4949.75 3404.44,4950.47 3405.46,4950.89C3406.48,4951.3 3407.86,4951.41 3409.37,4951.04C3412.28,4950.33 3415.81,4947.85 3417.46,4943.13Z" style="fill:white;"/>
        </g>
    </g>
</svg>
