<?xml version="1.0" encoding="UTF-8" standalone="no"?>
<!DOCTYPE svg PUBLIC "-//W3C//DTD SVG 1.1//EN" "http://www.w3.org/Graphics/SVG/1.1/DTD/svg11.dtd">
<svg width="100%" height="100%" viewBox="0 0 3713 565" version="1.1" xmlns="http://www.w3.org/2000/svg" xmlns:xlink="http://www.w3.org/1999/xlink" xml:space="preserve" xmlns:serif="http://www.serif.com/" style="fill-rule:evenodd;clip-rule:evenodd;stroke-linejoin:round;stroke-miterlimit:2;">
    <g transform="matrix(1,0,0,1,-5502.96,-280.278)">
        <g transform="matrix(1.00176,0,0,1.00176,2572.36,-4582.12)">
            <path d="M3219.69,4899.07L3095.8,5304.3C3092.58,5314.81 3082.88,5321.99 3071.89,5321.99C3071.89,5321.99 2995.45,5321.99 2995.45,5321.99C2973.25,5321.99 2952.38,5311.47 2939.18,5293.63C2925.97,5275.79 2922.01,5252.75 2928.5,5231.53L3041.81,4860.92C3042.9,4857.34 3048.63,4853.84 3052.37,4853.84C3077.64,4853.84 3139.85,4853.84 3186.22,4853.84C3197.31,4853.84 3207.75,4859.1 3214.35,4868.02C3220.95,4876.94 3222.93,4888.46 3219.69,4899.07Z"/>
        </g>
        <g transform="matrix(1.00176,0,0,1.00176,2572.36,-4582.12)">
            <path d="M3370.36,5094.64C3379.35,5065.2 3406.52,5045.1 3437.3,5045.1L3527.74,5045.1C3538.84,5045.1 3549.28,5050.36 3555.88,5059.28C3562.48,5068.2 3564.46,5079.72 3561.21,5090.33C3541.72,5154.08 3509.5,5259.48 3495.8,5304.3C3492.58,5314.81 3482.88,5321.99 3471.89,5321.99C3432.76,5321.99 3352.08,5321.99 3314.36,5321.99C3311.19,5321.99 3308.21,5320.49 3306.32,5317.94C3304.43,5315.39 3303.87,5312.1 3304.8,5309.07C3318.07,5265.66 3350.55,5159.41 3370.36,5094.64Z"/>
        </g>
        <g transform="matrix(1.00176,0,0,1.00176,2572.36,-4582.12)">
            <path d="M3570.36,5094.64C3579.35,5065.2 3599.14,5000.48 3602.39,4989.87C3610.58,4963.06 3620.57,4930.38 3628.83,4903.37C3637.83,4873.94 3664.99,4853.84 3695.77,4853.84L3920,4853.84C3923.17,4853.84 3926.16,4855.34 3928.04,4857.89C3929.93,4860.44 3930.49,4863.73 3929.57,4866.76C3929.57,4866.76 3922.48,4889.94 3922.48,4889.94C3913.48,4919.37 3893.7,4984.09 3890.45,4994.7C3874.3,5047.54 3848.61,5131.55 3827.17,5201.7C3805.31,5273.17 3739.34,5321.99 3664.6,5321.99C3607.03,5321.99 3545.36,5321.99 3514.36,5321.99C3511.19,5321.99 3508.21,5320.49 3506.32,5317.94C3504.43,5315.39 3503.87,5312.1 3504.8,5309.07C3518.07,5265.66 3550.55,5159.41 3570.36,5094.64Z"/>
        </g>
        <g transform="matrix(1.00176,0,0,1.00176,2572.36,-4582.12)">
            <path d="M3415.57,4942.47C3412.78,4950.48 3403.64,4950.96 3405.18,4946.29L3406.26,4943.01C3406.26,4943.01 3419.69,4899.07 3419.69,4899.07C3422.93,4888.46 3420.95,4876.94 3414.35,4868.02C3407.75,4859.1 3397.31,4853.84 3386.22,4853.84C3358.19,4853.84 3324.01,4853.84 3295.77,4853.84C3264.99,4853.84 3237.83,4873.94 3228.83,4903.37L3075.56,5404.7C3074.63,5407.73 3075.2,5411.02 3077.08,5413.57C3078.97,5416.12 3081.95,5417.62 3085.12,5417.62C3113.99,5417.62 3168.04,5417.62 3209.35,5417.62C3240.13,5417.62 3267.3,5397.52 3276.3,5368.09C3298.6,5295.14 3338.49,5164.66 3360.79,5091.71C3371.08,5058.07 3402.12,5035.1 3437.3,5035.1L3526.3,5035.1C3557.08,5035.1 3584.24,5015 3593.24,4985.57C3601.5,4958.57 3611.49,4925.88 3619.69,4899.07C3622.93,4888.46 3620.95,4876.94 3614.35,4868.02C3607.75,4859.1 3597.31,4853.84 3586.22,4853.84L3540.27,4853.84C3483.05,4853.84 3433.23,4891.73 3415.57,4942.47Z"/>
        </g>
        <g transform="matrix(1.00176,0,0,1.00176,3474.27,-4582.12)">
            <path d="M3219.69,4899.07L3095.8,5304.3C3092.58,5314.81 3082.88,5321.99 3071.89,5321.99C3071.89,5321.99 2995.45,5321.99 2995.45,5321.99C2973.25,5321.99 2952.38,5311.47 2939.18,5293.63C2925.97,5275.79 2922.01,5252.75 2928.5,5231.53L3041.81,4860.92C3042.9,4857.34 3048.63,4853.84 3052.37,4853.84C3077.64,4853.84 3139.85,4853.84 3186.22,4853.84C3197.31,4853.84 3207.75,4859.1 3214.35,4868.02C3220.95,4876.94 3222.93,4888.46 3219.69,4899.07Z"/>
        </g>
        <g transform="matrix(1.00176,0,0,1.00176,3474.27,-4582.12)">
            <path d="M3370.36,5094.64C3379.35,5065.2 3406.52,5045.1 3437.3,5045.1L3527.74,5045.1C3538.84,5045.1 3549.28,5050.36 3555.88,5059.28C3562.48,5068.2 3564.46,5079.72 3561.21,5090.33C3541.72,5154.08 3509.5,5259.48 3495.8,5304.3C3492.58,5314.81 3482.88,5321.99 3471.89,5321.99C3432.76,5321.99 3352.08,5321.99 3314.36,5321.99C3311.19,5321.99 3308.21,5320.49 3306.32,5317.94C3304.43,5315.39 3303.87,5312.1 3304.8,5309.07C3318.07,5265.66 3350.55,5159.41 3370.36,5094.64Z"/>
        </g>
        <g transform="matrix(1.00176,0,0,1.00176,3474.27,-4582.12)">
            <path d="M3570.36,5094.64C3579.35,5065.2 3599.14,5000.48 3602.39,4989.87C3610.58,4963.06 3620.57,4930.38 3628.83,4903.37C3637.83,4873.94 3664.99,4853.84 3695.77,4853.84L3920,4853.84C3923.17,4853.84 3926.16,4855.34 3928.04,4857.89C3929.93,4860.44 3930.49,4863.73 3929.57,4866.76C3929.57,4866.76 3922.48,4889.94 3922.48,4889.94C3913.48,4919.37 3893.7,4984.09 3890.45,4994.7C3874.3,5047.54 3848.61,5131.55 3827.17,5201.7C3805.31,5273.17 3739.34,5321.99 3664.6,5321.99C3607.03,5321.99 3545.36,5321.99 3514.36,5321.99C3511.19,5321.99 3508.21,5320.49 3506.32,5317.94C3504.43,5315.39 3503.87,5312.1 3504.8,5309.07C3518.07,5265.66 3550.55,5159.41 3570.36,5094.64Z"/>
        </g>
        <g transform="matrix(1.00176,0,0,1.00176,3474.27,-4582.12)">
            <path d="M3415.57,4942.47C3412.78,4950.48 3403.64,4950.96 3405.18,4946.29L3406.26,4943.01C3406.26,4943.01 3419.69,4899.07 3419.69,4899.07C3422.93,4888.46 3420.95,4876.94 3414.35,4868.02C3407.75,4859.1 3397.31,4853.84 3386.22,4853.84C3358.19,4853.84 3324.01,4853.84 3295.77,4853.84C3264.99,4853.84 3237.83,4873.94 3228.83,4903.37L3075.56,5404.7C3074.63,5407.73 3075.2,5411.02 3077.08,5413.57C3078.97,5416.12 3081.95,5417.62 3085.12,5417.62C3113.99,5417.62 3168.04,5417.62 3209.35,5417.62C3240.13,5417.62 3267.3,5397.52 3276.3,5368.09C3298.6,5295.14 3338.49,5164.66 3360.79,5091.71C3371.08,5058.07 3402.12,5035.1 3437.3,5035.1L3526.3,5035.1C3557.08,5035.1 3584.24,5015 3593.24,4985.57C3601.5,4958.57 3611.49,4925.88 3619.69,4899.07C3622.93,4888.46 3620.95,4876.94 3614.35,4868.02C3607.75,4859.1 3597.31,4853.84 3586.22,4853.84L3540.27,4853.84C3483.05,4853.84 3433.23,4891.73 3415.57,4942.47Z"/>
        </g>
        <g transform="matrix(1.00176,0,0,1.00176,4376.17,-4582.12)">
            <path d="M3219.69,4899.07L3095.8,5304.3C3092.58,5314.81 3082.88,5321.99 3071.89,5321.99C3071.89,5321.99 2995.45,5321.99 2995.45,5321.99C2973.25,5321.99 2952.38,5311.47 2939.18,5293.63C2925.97,5275.79 2922.01,5252.75 2928.5,5231.53L3041.81,4860.92C3042.9,4857.34 3048.63,4853.84 3052.37,4853.84C3077.64,4853.84 3139.85,4853.84 3186.22,4853.84C3197.31,4853.84 3207.75,4859.1 3214.35,4868.02C3220.95,4876.94 3222.93,4888.46 3219.69,4899.07Z"/>
        </g>
        <g transform="matrix(1.00176,0,0,1.00176,4376.17,-4582.12)">
            <path d="M3370.36,5094.64C3379.35,5065.2 3406.52,5045.1 3437.3,5045.1L3527.74,5045.1C3538.84,5045.1 3549.28,5050.36 3555.88,5059.28C3562.48,5068.2 3564.46,5079.72 3561.21,5090.33C3541.72,5154.08 3509.5,5259.48 3495.8,5304.3C3492.58,5314.81 3482.88,5321.99 3471.89,5321.99C3432.76,5321.99 3352.08,5321.99 3314.36,5321.99C3311.19,5321.99 3308.21,5320.49 3306.32,5317.94C3304.43,5315.39 3303.87,5312.1 3304.8,5309.07C3318.07,5265.66 3350.55,5159.41 3370.36,5094.64Z"/>
        </g>
        <g transform="matrix(1.00176,0,0,1.00176,4376.17,-4582.12)">
            <path d="M3570.36,5094.64C3579.35,5065.2 3599.14,5000.48 3602.39,4989.87C3610.58,4963.06 3620.57,4930.38 3628.83,4903.37C3637.83,4873.94 3664.99,4853.84 3695.77,4853.84L3920,4853.84C3923.17,4853.84 3926.16,4855.34 3928.04,4857.89C3929.93,4860.44 3930.49,4863.73 3929.57,4866.76C3929.57,4866.76 3922.48,4889.94 3922.48,4889.94C3913.48,4919.37 3893.7,4984.09 3890.45,4994.7C3874.3,5047.54 3848.61,5131.55 3827.17,5201.7C3805.31,5273.17 3739.34,5321.99 3664.6,5321.99C3607.03,5321.99 3545.36,5321.99 3514.36,5321.99C3511.19,5321.99 3508.21,5320.49 3506.32,5317.94C3504.43,5315.39 3503.87,5312.1 3504.8,5309.07C3518.07,5265.66 3550.55,5159.41 3570.36,5094.64Z"/>
        </g>
        <g transform="matrix(1.00176,0,0,1.00176,4376.17,-4582.12)">
            <path d="M3415.57,4942.47C3412.78,4950.48 3403.64,4950.96 3405.18,4946.29L3406.26,4943.01C3406.26,4943.01 3419.69,4899.07 3419.69,4899.07C3422.93,4888.46 3420.95,4876.94 3414.35,4868.02C3407.75,4859.1 3397.31,4853.84 3386.22,4853.84C3358.19,4853.84 3324.01,4853.84 3295.77,4853.84C3264.99,4853.84 3237.83,4873.94 3228.83,4903.37L3075.56,5404.7C3074.63,5407.73 3075.2,5411.02 3077.08,5413.57C3078.97,5416.12 3081.95,5417.62 3085.12,5417.62C3113.99,5417.62 3168.04,5417.62 3209.35,5417.62C3240.13,5417.62 3267.3,5397.52 3276.3,5368.09C3298.6,5295.14 3338.49,5164.66 3360.79,5091.71C3371.08,5058.07 3402.12,5035.1 3437.3,5035.1L3526.3,5035.1C3557.08,5035.1 3584.24,5015 3593.24,4985.57C3601.5,4958.57 3611.49,4925.88 3619.69,4899.07C3622.93,4888.46 3620.95,4876.94 3614.35,4868.02C3607.75,4859.1 3597.31,4853.84 3586.22,4853.84L3540.27,4853.84C3483.05,4853.84 3433.23,4891.73 3415.57,4942.47Z"/>
        </g>
        <g transform="matrix(1.00176,0,0,1.00176,5278.13,-4582.12)">
            <path d="M3219.69,4899.07L3095.8,5304.3C3092.58,5314.81 3082.88,5321.99 3071.89,5321.99C3071.89,5321.99 2995.45,5321.99 2995.45,5321.99C2973.25,5321.99 2952.38,5311.47 2939.18,5293.63C2925.97,5275.79 2922.01,5252.75 2928.5,5231.53L3041.81,4860.92C3042.9,4857.34 3048.63,4853.84 3052.37,4853.84C3077.64,4853.84 3139.85,4853.84 3186.22,4853.84C3197.31,4853.84 3207.75,4859.1 3214.35,4868.02C3220.95,4876.94 3222.93,4888.46 3219.69,4899.07Z"/>
        </g>
        <g transform="matrix(1.00176,0,0,1.00176,5278.13,-4582.12)">
            <path d="M3370.36,5094.64C3379.35,5065.2 3406.52,5045.1 3437.3,5045.1L3527.74,5045.1C3538.84,5045.1 3549.28,5050.36 3555.88,5059.28C3562.48,5068.2 3564.46,5079.72 3561.21,5090.33C3541.72,5154.08 3509.5,5259.48 3495.8,5304.3C3492.58,5314.81 3482.88,5321.99 3471.89,5321.99C3432.76,5321.99 3352.08,5321.99 3314.36,5321.99C3311.19,5321.99 3308.21,5320.49 3306.32,5317.94C3304.43,5315.39 3303.87,5312.1 3304.8,5309.07C3318.07,5265.66 3350.55,5159.41 3370.36,5094.64Z"/>
        </g>
        <g transform="matrix(1.00176,0,0,1.00176,5278.13,-4582.12)">
            <path d="M3570.36,5094.64C3579.35,5065.2 3599.14,5000.48 3602.39,4989.87C3610.58,4963.06 3620.57,4930.38 3628.83,4903.37C3637.83,4873.94 3664.99,4853.84 3695.77,4853.84L3920,4853.84C3923.17,4853.84 3926.16,4855.34 3928.04,4857.89C3929.93,4860.44 3930.49,4863.73 3929.57,4866.76C3929.57,4866.76 3922.48,4889.94 3922.48,4889.94C3913.48,4919.37 3893.7,4984.09 3890.45,4994.7C3874.3,5047.54 3848.61,5131.55 3827.17,5201.7C3805.31,5273.17 3739.34,5321.99 3664.6,5321.99C3607.03,5321.99 3545.36,5321.99 3514.36,5321.99C3511.19,5321.99 3508.21,5320.49 3506.32,5317.94C3504.43,5315.39 3503.87,5312.1 3504.8,5309.07C3518.07,5265.66 3550.55,5159.41 3570.36,5094.64Z"/>
        </g>
        <g transform="matrix(1.00176,0,0,1.00176,5278.13,-4582.12)">
            <path d="M3415.57,4942.47C3412.78,4950.48 3403.64,4950.96 3405.18,4946.29L3406.26,4943.01C3406.26,4943.01 3419.69,4899.07 3419.69,4899.07C3422.93,4888.46 3420.95,4876.94 3414.35,4868.02C3407.75,4859.1 3397.31,4853.84 3386.22,4853.84C3358.19,4853.84 3324.01,4853.84 3295.77,4853.84C3264.99,4853.84 3237.83,4873.94 3228.83,4903.37L3075.56,5404.7C3074.63,5407.73 3075.2,5411.02 3077.08,5413.57C3078.97,5416.12 3081.95,5417.62 3085.12,5417.62C3113.99,5417.62 3168.04,5417.62 3209.35,5417.62C3240.13,5417.62 3267.3,5397.52 3276.3,5368.09C3298.6,5295.14 3338.49,5164.66 3360.79,5091.71C3371.08,5058.07 3402.12,5035.1 3437.3,5035.1L3526.3,5035.1C3557.08,5035.1 3584.24,5015 3593.24,4985.57C3601.5,4958.57 3611.49,4925.88 3619.69,4899.07C3622.93,4888.46 3620.95,4876.94 3614.35,4868.02C3607.75,4859.1 3597.31,4853.84 3586.22,4853.84L3540.27,4853.84C3483.05,4853.84 3433.23,4891.73 3415.57,4942.47Z"/>
        </g>
    </g>
</svg>
