<?xml version="1.0" encoding="UTF-8" standalone="no"?>
<!DOCTYPE svg PUBLIC "-//W3C//DTD SVG 1.1//EN" "http://www.w3.org/Graphics/SVG/1.1/DTD/svg11.dtd">
<svg width="100%" height="100%" viewBox="0 0 396 396" version="1.1" xmlns="http://www.w3.org/2000/svg" xmlns:xlink="http://www.w3.org/1999/xlink" xml:space="preserve" xmlns:serif="http://www.serif.com/" style="fill-rule:evenodd;clip-rule:evenodd;stroke-linejoin:round;stroke-miterlimit:2;">
    <g transform="matrix(1,0,0,1,-4345.71,-4007.39)">
        <path d="M4543.43,4007.39C4652.56,4007.39 4741.15,4095.99 4741.15,4205.11C4741.15,4314.24 4652.56,4402.83 4543.43,4402.83C4434.3,4402.83 4345.71,4314.24 4345.71,4205.11C4345.71,4095.99 4434.3,4007.39 4543.43,4007.39ZM4664.65,4132.38C4664.65,4119.04 4653.74,4108.13 4640.41,4108.13L4446.45,4108.13C4433.12,4108.13 4422.21,4119.04 4422.21,4132.38L4422.21,4277.84C4422.21,4291.18 4433.12,4302.09 4446.45,4302.09L4640.41,4302.09C4653.74,4302.09 4664.65,4291.18 4664.65,4277.84L4664.65,4132.38ZM4640.41,4277.84L4446.45,4277.84L4446.45,4156.62L4543.43,4217.23L4640.41,4156.62L4640.41,4277.84ZM4640.41,4132.38L4543.43,4192.99L4446.45,4132.38L4640.41,4132.38Z" style="fill:white;"/>
    </g>
</svg>
