<?xml version="1.0" encoding="UTF-8" standalone="no"?>
<!DOCTYPE svg PUBLIC "-//W3C//DTD SVG 1.1//EN" "http://www.w3.org/Graphics/SVG/1.1/DTD/svg11.dtd">
<svg width="100%" height="100%" viewBox="0 0 396 396" version="1.1" xmlns="http://www.w3.org/2000/svg" xmlns:xlink="http://www.w3.org/1999/xlink" xml:space="preserve" xmlns:serif="http://www.serif.com/" style="fill-rule:evenodd;clip-rule:evenodd;stroke-linejoin:round;stroke-miterlimit:2;">
    <g transform="matrix(1,0,0,1,-3708.38,-4007.39)">
        <path d="M3906.1,4007.39C4015.23,4007.39 4103.83,4095.99 4103.83,4205.11C4103.83,4314.24 4015.23,4402.83 3906.1,4402.83C3796.98,4402.83 3708.38,4314.24 3708.38,4205.11C3708.38,4095.99 3796.98,4007.39 3906.1,4007.39ZM3852.95,4085.52C3816.27,4085.52 3786.52,4115.27 3786.52,4151.96L3786.52,4258.26C3786.52,4294.95 3816.27,4324.7 3852.95,4324.7L3959.25,4324.7C3995.94,4324.7 4025.69,4294.95 4025.69,4258.26L4025.69,4151.96C4025.69,4115.27 3995.94,4085.52 3959.25,4085.52L3852.95,4085.52ZM3906.1,4138.67C3942.79,4138.67 3972.54,4168.42 3972.54,4205.11C3972.54,4241.8 3942.79,4271.55 3906.1,4271.55C3869.42,4271.55 3839.67,4241.8 3839.67,4205.11C3839.67,4168.42 3869.42,4138.67 3906.1,4138.67ZM3906.1,4165.25C3884.24,4165.25 3866.24,4183.24 3866.24,4205.11C3866.24,4226.98 3884.24,4244.97 3906.1,4244.97C3927.97,4244.97 3945.97,4226.98 3945.97,4205.11C3945.97,4183.24 3927.97,4165.25 3906.1,4165.25ZM3985.83,4112.1C3993.16,4112.1 3999.12,4118.05 3999.12,4125.39C3999.12,4132.72 3993.16,4138.67 3985.83,4138.67C3978.49,4138.67 3972.54,4132.72 3972.54,4125.39C3972.54,4118.05 3978.49,4112.1 3985.83,4112.1Z" style="fill:white;"/>
    </g>
</svg>
