<?xml version="1.0" encoding="UTF-8" standalone="no"?>
<!DOCTYPE svg PUBLIC "-//W3C//DTD SVG 1.1//EN" "http://www.w3.org/Graphics/SVG/1.1/DTD/svg11.dtd">
<svg width="100%" height="100%" viewBox="0 0 396 396" version="1.1" xmlns="http://www.w3.org/2000/svg" xmlns:xlink="http://www.w3.org/1999/xlink" xml:space="preserve" xmlns:serif="http://www.serif.com/" style="fill-rule:evenodd;clip-rule:evenodd;stroke-linejoin:round;stroke-miterlimit:2;">
    <g transform="matrix(1,0,0,1,-3147.86,-4007.39)">
        <path d="M3345.59,4007.39C3454.71,4007.39 3543.31,4095.99 3543.31,4205.11C3543.31,4314.24 3454.71,4402.83 3345.59,4402.83C3236.46,4402.83 3147.86,4314.24 3147.86,4205.11C3147.86,4095.99 3236.46,4007.39 3345.59,4007.39ZM3471.07,4122.34C3466.94,4124.17 3462.69,4125.71 3458.35,4126.97C3463.49,4121.16 3467.41,4114.32 3469.8,4106.85C3470.33,4105.17 3469.78,4103.33 3468.4,4102.24C3467.02,4101.14 3465.11,4101.01 3463.6,4101.91C3454.38,4107.37 3444.44,4111.3 3434.02,4113.6C3423.52,4103.34 3409.26,4097.5 3394.52,4097.5C3363.4,4097.5 3338.09,4122.81 3338.09,4153.93C3338.09,4156.38 3338.24,4158.82 3338.55,4161.22C3299.93,4157.83 3264.03,4138.85 3239.38,4108.61C3238.51,4107.53 3237.15,4106.95 3235.77,4107.07C3234.38,4107.17 3233.13,4107.95 3232.43,4109.16C3227.43,4117.74 3224.79,4127.55 3224.79,4137.53C3224.79,4151.13 3229.64,4164.03 3238.22,4174.11C3235.61,4173.21 3233.08,4172.08 3230.67,4170.74C3229.37,4170.02 3227.79,4170.03 3226.5,4170.77C3225.21,4171.51 3224.4,4172.86 3224.37,4174.35C3224.36,4174.6 3224.36,4174.85 3224.36,4175.1C3224.36,4195.4 3235.29,4213.67 3251.99,4223.63C3250.55,4223.49 3249.12,4223.28 3247.7,4223.01C3246.23,4222.73 3244.72,4223.24 3243.73,4224.36C3242.73,4225.48 3242.41,4227.04 3242.86,4228.47C3249.05,4247.77 3264.96,4261.97 3284.2,4266.29C3268.24,4276.29 3249.99,4281.52 3230.84,4281.52C3226.84,4281.52 3222.82,4281.29 3218.88,4280.82C3216.93,4280.59 3215.06,4281.75 3214.39,4283.6C3213.73,4285.46 3214.43,4287.54 3216.1,4288.6C3240.71,4304.38 3269.17,4312.73 3298.39,4312.73C3355.85,4312.73 3391.79,4285.63 3411.82,4262.9C3436.81,4234.56 3451.13,4197.05 3451.13,4159.98C3451.13,4158.44 3451.11,4156.87 3451.06,4155.31C3460.92,4147.89 3469.41,4138.9 3476.31,4128.57C3477.36,4127 3477.24,4124.93 3476.03,4123.48C3474.82,4122.04 3472.79,4121.57 3471.07,4122.34Z" style="fill:white;"/>
    </g>
</svg>
